<?xml version="1.0" encoding="UTF-8" standalone="no"?>
<svg width="300px" height="300px" viewBox="0 0 300 300" version="1.1" xmlns="http://www.w3.org/2000/svg" xmlns:xlink="http://www.w3.org/1999/xlink">
    <defs></defs>
    <g stroke="none" stroke-width="1" fill="none" fill-rule="evenodd">
        <g transform="translate(1.000000, 1.000000)">
            <circle stroke="#C98C81" stroke-width="2" opacity="0.271280317" cx="149" cy="149" r="149"></circle>
            <circle stroke="#C98C81" stroke-width="3" opacity="0.394997668" cx="149" cy="149" r="116"></circle>
            <path d="M259.918573,226.507783 C259.918573,235.785966 267.436011,243.307382 276.709287,243.307382 C285.982563,243.307382 293.5,235.785966 293.5,226.507783 C293.5,217.2296 285.982563,209.708184 276.709287,209.708184 C267.436011,209.708184 259.918573,217.2296 259.918573,226.507783 Z" fill="#C98C81"></path>
            <path d="M243.418573,99.507783 C243.418573,105.194207 248.02587,109.803942 253.709287,109.803942 C259.392704,109.803942 264,105.194207 264,99.507783 C264,93.8213586 259.392704,89.211624 253.709287,89.211624 C248.02587,89.211624 243.418573,93.8213586 243.418573,99.507783 Z" fill="#79A69F"></path>
        </g>
    </g>
</svg>